<?xml version="1.0" standalone="no"?>
<!DOCTYPE svg PUBLIC "-//W3C//DTD SVG 20010904//EN"
 "http://www.w3.org/TR/2001/REC-SVG-20010904/DTD/svg10.dtd">
<svg version="1.0" xmlns="http://www.w3.org/2000/svg"
 width="603.000000pt" height="123.000000pt" viewBox="0 0 603.000000 123.000000"
 preserveAspectRatio="xMidYMid meet">
<metadata>
Created by potrace 1.16, written by Peter Selinger 2001-2019
</metadata>
<g transform="translate(0.000000,123.000000) scale(0.100000,-0.100000)"
fill="#000000" stroke="none">
<path d="M20 623 l0 -600 1913 -6 c1051 -4 2401 -7 3000 -7 l1087 0 0 600 0
600 -1087 0 c-599 0 -1949 3 -3000 7 l-1913 6 0 -600z m4817 517 l1113 0 0
-530 0 -530 -1023 0 c-563 0 -1882 3 -2930 7 l-1907 6 0 530 0 530 1817 -6
c999 -4 2317 -7 2930 -7z"/>
<path d="M536 981 c-106 -43 -192 -134 -217 -230 l-12 -47 -91 0 -91 1 -3 -62
c-4 -94 7 -125 49 -135 104 -26 139 -39 139 -54 0 -8 7 -17 15 -20 8 -4 15
-16 15 -28 0 -28 70 -113 123 -149 62 -42 110 -52 252 -52 120 0 134 2 186 26
79 37 133 90 171 167 32 65 33 69 33 202 0 133 -1 137 -33 202 -36 74 -95 133
-170 169 -41 20 -65 24 -182 26 -115 3 -142 0 -184 -16z m305 -80 c74 -35 125
-85 161 -158 28 -58 33 -77 33 -143 0 -132 -70 -242 -190 -296 -60 -28 -130
-41 -139 -26 -3 6 -10 32 -15 57 -7 39 -6 47 8 52 50 16 73 28 96 50 39 40 85
114 85 139 0 13 14 33 36 51 l36 29 -56 43 c-95 71 -115 72 -226 8 -49 -29
-216 -87 -248 -87 -41 0 -49 18 -33 73 28 95 105 176 207 218 66 26 179 21
245 -10z m23 -207 l48 -36 -26 -27 c-14 -15 -26 -35 -26 -45 0 -24 -16 -53
-57 -104 -39 -47 -71 -67 -126 -77 -36 -7 -37 -9 -24 -29 8 -11 17 -41 21 -65
6 -37 5 -42 -7 -32 -8 6 -22 9 -31 5 -17 -7 -22 11 -6 21 6 3 10 17 10 30 0
18 -8 26 -36 35 -22 7 -39 21 -44 36 -12 30 -95 84 -129 84 -34 0 -53 13 -46
32 5 11 -15 20 -89 38 -85 22 -95 26 -99 49 -3 15 -5 27 -4 27 1 1 60 -9 130
-21 l128 -22 92 38 c51 21 97 39 104 39 7 0 34 14 60 30 63 40 98 39 157 -6z"/>
<path d="M3105 838 c-3 -7 -4 -121 -3 -253 l3 -240 70 0 70 0 0 250 0 250 -68
3 c-49 2 -69 -1 -72 -10z"/>
<path d="M3636 798 c-8 -13 -30 -77 -50 -144 -38 -129 -49 -257 -24 -282 17
-17 479 -17 496 0 8 8 12 49 12 120 0 101 1 108 20 108 19 0 20 -7 20 -109 0
-77 4 -112 13 -119 17 -14 376 -15 393 -1 7 6 21 6 38 -1 43 -16 202 -13 236
5 l29 15 1 205 0 206 -26 9 c-33 13 -215 13 -248 0 -16 -6 -27 -6 -31 0 -4 6
-171 10 -435 10 l-430 0 -14 -22z m166 -183 c58 -199 57 -185 15 -185 -26 0
-39 6 -51 25 -19 29 -51 26 -74 -6 -16 -23 -60 -25 -69 -3 -6 15 45 203 73
272 11 28 18 33 41 30 25 -3 29 -10 65 -133z m266 107 c4 -30 -14 -52 -44 -52
-23 0 -23 -2 -26 -117 l-3 -118 -37 -3 -38 -3 0 116 c0 84 -3 117 -12 119 -7
3 -25 7 -40 10 -23 5 -28 12 -28 35 0 15 3 31 7 35 4 3 54 5 112 4 102 -3 106
-4 109 -26z m260 -9 c-3 -35 -6 -38 -35 -41 l-32 -3 -3 -117 -3 -117 -35 0
-35 0 -3 117 -3 117 -32 3 c-29 3 -32 6 -35 41 l-3 37 111 0 111 0 -3 -37z
m127 -123 l0 -155 -35 0 -35 0 -3 144 c-3 156 2 174 47 169 l26 -3 0 -155z
m273 154 c18 -5 22 -13 22 -50 0 -41 -11 -56 -25 -34 -3 6 -26 10 -50 10 -36
0 -47 -5 -65 -27 -44 -56 -1 -141 65 -130 16 3 39 7 50 9 16 2 21 -3 23 -33 3
-32 0 -38 -28 -49 -61 -25 -137 1 -184 64 -30 39 -30 143 0 183 38 52 119 76
192 57z"/>
<path d="M4941 807 c-51 -26 -59 -52 -66 -207 -6 -136 -5 -147 15 -178 39 -62
43 -62 527 -60 l438 3 3 118 c3 114 3 117 25 117 39 0 47 18 47 112 0 76 -2
89 -19 98 -27 14 -473 14 -488 -1 -8 -8 -13 -8 -17 0 -4 6 -40 11 -87 11 -63
0 -83 -4 -97 -18 -18 -18 -19 -18 -42 0 -18 15 -40 18 -119 18 -56 0 -106 -5
-120 -13z m190 -87 c42 -42 38 -84 -9 -88 -27 -3 -34 1 -42 22 -12 31 -50 36
-50 7 0 -15 13 -23 54 -35 62 -18 86 -47 86 -101 0 -51 -44 -95 -95 -95 -72 0
-135 49 -135 105 0 24 66 20 80 -4 13 -25 47 -36 65 -21 22 18 7 37 -41 50
-67 19 -94 44 -94 89 0 65 38 99 113 100 30 1 45 -6 68 -29z m260 -125 c51
-159 51 -165 -4 -165 -21 0 -30 6 -34 20 -4 14 -14 20 -34 20 -18 0 -32 -7
-39 -20 -11 -20 -63 -29 -74 -12 -3 5 8 51 23 103 16 52 32 113 36 137 8 49
29 74 57 70 16 -2 29 -31 69 -153z m167 28 l3 -122 27 3 c42 5 52 -3 52 -40
l0 -35 -77 3 -78 3 -3 145 c-1 79 0 150 3 158 3 8 17 12 37 10 l33 -3 3 -122z
m290 118 c8 -5 12 -21 10 -37 -2 -25 -8 -29 -35 -32 l-33 -3 0 -120 0 -120
-37 3 -38 3 -3 118 -3 117 -34 0 c-33 0 -35 2 -35 33 0 19 3 37 7 40 9 10 186
8 201 -2z"/>
<path d="M1255 775 c-14 -13 -25 -35 -25 -49 0 -14 -4 -28 -10 -31 -13 -8 -13
-158 -1 -170 6 -6 11 -39 13 -75 l3 -65 95 0 95 0 3 66 c2 55 6 68 21 72 20 5
25 31 37 178 7 88 -6 99 -124 99 -75 0 -85 -2 -107 -25z m146 -55 c26 -15 9
-51 -21 -43 -16 4 -20 0 -20 -21 0 -19 5 -26 20 -26 13 0 20 -7 20 -20 0 -13
-7 -20 -20 -20 -18 0 -20 -7 -20 -70 l0 -70 -30 0 -30 0 0 70 c0 40 -4 70 -10
70 -5 0 -10 9 -10 20 0 11 5 20 10 20 6 0 10 14 10 30 0 54 53 85 101 60z"/>
<path d="M2269 722 c-13 -10 -39 -24 -57 -32 -18 -7 -37 -21 -42 -31 -6 -10
-10 -87 -10 -173 0 -191 -4 -186 142 -186 87 0 100 2 122 23 23 21 24 27 31
210 l6 187 -26 10 c-45 17 -139 12 -166 -8z m121 -78 c0 -7 -7 -17 -15 -21
-12 -7 -13 -14 -3 -40 15 -39 -1 -79 -34 -92 -22 -8 -21 -8 7 -22 39 -19 46
-60 13 -83 -44 -31 -128 -15 -128 24 0 23 38 28 58 8 9 -9 15 -9 24 0 9 9 4
14 -20 23 -23 8 -32 17 -32 34 0 12 -7 28 -15 35 -20 16 -19 74 1 94 8 9 27
19 41 22 14 4 34 15 44 25 19 19 59 15 59 -7z"/>
<path d="M1512 688 c-8 -8 -12 -51 -12 -134 0 -116 1 -125 24 -151 l24 -28
123 2 c67 1 126 6 131 11 5 5 7 76 6 158 l-3 149 -140 3 c-101 2 -144 -1 -153
-10z m120 -120 c3 -55 5 -63 23 -63 18 0 20 8 23 63 3 61 3 62 32 62 l30 0 0
-90 0 -90 -47 0 c-27 0 -57 0 -68 0 -35 -1 -55 36 -55 104 0 69 3 76 36 76 21
0 23 -5 26 -62z"/>
<path d="M1868 671 c-32 -29 -33 -31 -36 -123 -3 -108 7 -135 58 -160 43 -22
166 -24 214 -4 29 12 34 19 39 61 18 125 1 221 -41 244 -12 6 -61 11 -111 11
-86 0 -92 -1 -123 -29z m172 -51 c17 -9 40 -58 40 -86 0 -10 -16 -14 -56 -14
-40 0 -54 -3 -51 -12 2 -7 19 -13 38 -13 66 0 79 -28 21 -46 -77 -23 -142 32
-127 108 10 57 82 91 135 63z"/>
<path d="M2503 665 l-35 -35 4 -100 c3 -93 5 -101 31 -127 25 -26 34 -28 120
-31 107 -3 134 7 159 58 22 43 24 156 4 204 -23 55 -48 66 -154 66 l-94 0 -35
-35z m184 -50 c34 -24 47 -76 29 -119 -17 -42 -55 -60 -102 -51 -41 7 -65 35
-71 84 -5 35 -2 44 25 71 34 34 83 40 119 15z"/>
</g>
</svg>
