<?xml version="1.0" encoding="utf-8"?>
<!-- Generator: Adobe Illustrator 23.0.6, SVG Export Plug-In . SVG Version: 6.00 Build 0)  -->
<svg version="1.1" id="Layer_1" xmlns="http://www.w3.org/2000/svg" xmlns:xlink="http://www.w3.org/1999/xlink" x="0px" y="0px"
	 viewBox="0 0 3393.6 845.5" style="enable-background:new 0 0 3393.6 845.5;" xml:space="preserve">
<style type="text/css">
	.st0{display:none;fill:#ED1C24;}
	.st1{fill:#416DB5;}
	.st2{fill:#F0A725;}
</style>
<rect class="st0" width="3393.6" height="845.5"/>
<g>
	<path class="st1" d="M186,312.7V148.6c0-19.5-2.8-33-8.4-40.3c-6.7-6.3-16.2-9.4-28.5-9.4c-12.3,0-21.4,3.1-27.3,9.4
		c-7.1,7.4-10.6,20.8-10.6,40.3v545.3c0,19.9,3.5,33.1,10.6,39.8c5.9,7.7,15.1,11.2,27.3,10.5c12.3,0.7,21.8-2.8,28.5-10.5
		c5.6-6.7,8.4-19.9,8.4-39.8v-174h111.1v184.5c0,25.8-4.4,47.3-13.1,64.6c-8.7,18-20.2,31.9-34.5,41.4c-14,9.9-29.6,17.1-47.1,21.5
		c-17.8,5.5-35.9,8.3-54.4,8.3c-17.1,0-34.2-2.8-51.3-8.3c-17.4-4.4-33.1-11.6-47.1-21.5c-32.4-19.5-49-54.9-49.7-106V138.7
		c0-27.2,5.1-49.5,15.2-66.8c8.7-18,20.2-32,34.5-42c14-9.6,29.6-16.8,47.1-21.5c17.1-3.7,34.2-5.5,51.3-5.5
		c37-0.7,70.8,8.3,101.5,27.1c14.3,9.9,25.8,23.9,34.5,42c8.7,17.3,13.1,39.6,13.1,66.8v174H186z"/>
	<path class="st1" d="M429.3,18.8h166.8L681,824.2H568.9l-21-218.2h-78.8l-24,218.2H344.3L429.3,18.8z M537.2,501.1l-23-335.4H507
		l-27.6,335.4H537.2z"/>
	<path class="st1" d="M723.9,824.2V18.8h111.1v700.4h141.8v104.9H723.9z"/>
	<path class="st1" d="M1013.2,824.2V18.8H1261v104.9h-136.6v207.8h131.5v104.8h-131.5v282.9H1263v104.9H1013.2z"/>
	<path class="st1" d="M1491.1,18.8L1523,251c25,150.7,42.5,302.8,52.5,456.1h4.1V664c-1.4-78.5-2.4-157-3.1-235.5V18.8h91v805.3
		h-164.8l-52.9-403c-15.4-97.3-26.5-192.4-33.4-285.3h-4.2c0,35.4,1.1,70,3.2,103.9v584.4h-91V18.8H1491.1z"/>
	<path class="st1" d="M1737,18.8h137c56.5-0.7,97.3,11.8,122.4,37.6c25.1,26.2,37.7,74.4,37.7,144.7v477.2
		c0,39.8-11.5,73.3-34.5,100.5c-22.7,29.5-56.1,44.5-100.4,45.3H1737V18.8z M1848.2,728.1h29c16,0.7,27.7-3.1,35.1-11.6
		c7.1-7.4,10.6-23.6,10.6-48.6V175.1c0-25.8-3.5-42.9-10.6-51.4c-7.4-5.9-19.2-8.8-35.1-8.8h-29V728.1z"/>
	<path class="st1" d="M2157.3,18.8h166.8l84.9,805.3H2297l-21-218.2h-78.8l-24,218.2h-100.8L2157.3,18.8z M2265.3,501.1l-23-335.4
		h-7.2l-27.6,335.4H2265.3z"/>
	<path class="st1" d="M2450.4,824.2V18.8h150.1c46.4,0,82.5,9.8,108.3,29.3c25.1,21.4,38,57.6,38.7,108.8v114.3
		c0.7,30.2-5.6,56.2-19,77.9c-14.7,21.7-45,36.1-91.1,43.1v2.2c25.6,2.2,49,10.1,70.1,23.7c10.2,6.7,18.6,16,25.1,28.2
		c6.1,12.2,9.6,27.6,10.2,46.4c2.4,53.4,4.3,108.1,5.7,164.1c0.7,55.6,4.9,111.4,12.5,167.4h-111.4c-8.2-47.5-12.7-99.2-13.3-155.2
		c-1-54.1-1-105,0-152.5c0-25-5.4-42.7-16.2-53c-10.8-9.9-30.3-14.2-58.6-12.7v373.4H2450.4z M2561.6,352.5h22.9
		c21.6,0,35.7-5.4,42.4-16c6.3-8.8,9.5-20.8,9.5-35.9V154.7c-1.1-27.2-16.4-40.5-45.8-39.8h-29V352.5z"/>
	<path class="st1" d="M2904.9,693.9c0,19.9,3.5,33.1,10.6,39.8c6,7.7,15.1,11.2,27.3,10.5c12.3,0.7,21.8-2.8,28.5-10.5
		c5.6-6.7,8.4-19.9,8.4-39.8v-84.5c-1.1-28-10.6-56.7-28.6-86.2c-18-27.6-39.4-56.1-64.1-85.6c-23.7-29.5-44.5-59.3-62.5-89.5
		c-20.5-30.2-30.7-61.5-30.7-93.9V138.7c0-27.2,5.1-49.5,15.2-66.8c8.7-18,20.2-32,34.5-42c13.9-9.6,29.6-16.8,47.1-21.5
		c17.1-3.7,34.2-5.5,51.3-5.5c36.9-0.7,70.8,8.3,101.5,27.1c14.3,9.9,25.8,23.9,34.5,42c8.7,17.3,13.1,39.6,13.1,66.8v85.8h-111.1
		v-75.9c0-19.5-2.8-33-8.4-40.3c-6.7-6.3-16.2-9.4-28.5-9.4c-12.3,0-21.4,3.1-27.3,9.4c-7,7.4-10.6,20.8-10.6,40.3c0,0,0,75,0,100
		c0,6.6,3.2,14.8,9,24.8c5.8,10.2,12.9,21.9,21.7,34.8c18,26.5,39,55.6,63,87.2c24.4,30.9,45.5,60.8,63.5,89.5
		c18.4,30.2,24.7,52.8,28.6,76.8c5.8,35.1,0,142.5,0,142.5c0,25.7-4.4,47.3-13.1,64.6c-8.7,18-20.2,31.9-34.5,41.4
		c-13.9,9.9-29.6,17.1-47.1,21.5c-17.8,5.5-35.9,8.3-54.4,8.3c-17.1,0-34.2-2.8-51.3-8.3c-17.4-4.4-33.1-11.6-47.1-21.5
		c-32.4-19.5-49-54.9-49.7-106V593.2h111.2V693.9z"/>
</g>
<g>
	<g>
		<path class="st2" d="M3308.8,534.5l13.5-44.5c23.8,6.8,41.4,18.2,53,34c11.5,15.9,17.3,36,17.3,60.4c0,30.2-9.9,55-29.6,74.4
			c-19.8,19.4-46.8,29.1-81.1,29.1c-36.3,0-64.4-9.8-84.5-29.3c-20.1-19.5-30.1-45.2-30.1-77c0-27.8,7.9-50.4,23.6-67.7
			c9.3-10.3,22.7-18.1,40.1-23.3l10.4,45.4c-11.3,2.7-20.2,8.3-26.8,16.8s-9.8,18.9-9.8,31.1c0,16.8,5.8,30.5,17.4,41
			c11.6,10.5,30.4,15.7,56.3,15.7c27.5,0,47.2-5.2,58.9-15.5c11.7-10.3,17.5-23.8,17.5-40.3c0-12.2-3.7-22.7-11.1-31.5
			C3336.4,544.6,3324.8,538.3,3308.8,534.5z"/>
		<path class="st2" d="M3281.3,470.4c-22.2,0-40.8-3.5-55.9-10.4c-11.1-5.2-21.1-12.2-29.9-21.2c-8.8-8.9-15.4-18.7-19.6-29.4
			c-5.7-14.2-8.6-30.5-8.6-49c0-33.5,10-60.3,29.9-80.4c19.9-20.1,47.6-30.1,83.1-30.1c35.2,0,62.7,10,82.6,29.9
			c19.9,19.9,29.8,46.6,29.8,80c0,33.8-9.9,60.7-29.6,80.6C3343.2,460.4,3316,470.4,3281.3,470.4z M3279.8,423.1
			c24.7,0,43.4-5.9,56.1-17.8c12.7-11.9,19.1-27,19.1-45.3c0-18.3-6.3-33.3-18.9-45c-12.6-11.7-31.6-17.6-56.8-17.6
			c-25,0-43.6,5.7-55.9,17.1c-12.3,11.4-18.4,26.6-18.4,45.5s6.2,34.2,18.7,45.7C3236,417.4,3254.8,423.1,3279.8,423.1z"/>
		<path class="st2" d="M3388.9,225.3H3171v-68.7l148.6-41.2L3171,74.6V5.8h217.9v42.6h-171.5l171.5,45.1v44.2l-171.5,45h171.5V225.3
			z"/>
	</g>
	<path class="st2" d="M3350.9,777.9c0,36.1-28.1,65.4-62.7,65.4c-34.6,0-62.7-29.3-62.7-65.4c0-36.1,28.1-65.4,62.7-65.4
		C3322.8,712.5,3350.9,741.8,3350.9,777.9z"/>
</g>
</svg>
