<?xml version="1.0" encoding="utf-8"?>
<!-- Generator: Adobe Illustrator 23.0.6, SVG Export Plug-In . SVG Version: 6.00 Build 0)  -->
<svg version="1.1" id="Layer_1" xmlns="http://www.w3.org/2000/svg" xmlns:xlink="http://www.w3.org/1999/xlink" x="0px" y="0px"
	 viewBox="0 0 3393.6 845.5" style="enable-background:new 0 0 3393.6 845.5;" xml:space="preserve">
	<path d="M186 312.7V148.6c0-19.5-2.8-33-8.4-40.3-6.7-6.3-16.2-9.4-28.5-9.4s-21.4 3.1-27.3 9.4c-7.1 7.4-10.6 20.8-10.6 40.3v545.3c0 19.9 3.5 33.1 10.6 39.8 5.9 7.7 15.1 11.2 27.3 10.5 12.3.7 21.8-2.8 28.5-10.5 5.6-6.7 8.4-19.9 8.4-39.8v-174h111.1v184.5c0 25.8-4.4 47.3-13.1 64.6-8.7 18-20.2 31.9-34.5 41.4-14 9.9-29.6 17.1-47.1 21.5-17.8 5.5-35.9 8.3-54.4 8.3-17.1 0-34.2-2.8-51.3-8.3-17.4-4.4-33.1-11.6-47.1-21.5-32.4-19.5-49-54.9-49.7-106V138.7c0-27.2 5.1-49.5 15.2-66.8 8.7-18 20.2-32 34.5-42 14-9.6 29.6-16.8 47.1-21.5 17.1-3.7 34.2-5.5 51.3-5.5 37-.7 70.8 8.3 101.5 27.1 14.3 9.9 25.8 23.9 34.5 42 8.7 17.3 13.1 39.6 13.1 66.8v174H186zM429.3 18.8h166.8L681 824.2H568.9l-21-218.2h-78.8l-24 218.2H344.3l85-805.4zm107.9 482.3l-23-335.4H507l-27.6 335.4h57.8zm186.7 323.1V18.8H835v700.4h141.8v104.9H723.9zm289.3 0V18.8H1261v104.9h-136.6v207.8h131.5v104.8h-131.5v282.9H1263v104.9h-249.8zm477.9-805.4L1523 251c25 150.7 42.5 302.8 52.5 456.1h4.1V664c-1.4-78.5-2.4-157-3.1-235.5V18.8h91v805.3h-164.8l-52.9-403c-15.4-97.3-26.5-192.4-33.4-285.3h-4.2c0 35.4 1.1 70 3.2 103.9v584.4h-91V18.8h166.7zm245.9 0h137c56.5-.7 97.3 11.8 122.4 37.6 25.1 26.2 37.7 74.4 37.7 144.7v477.2c0 39.8-11.5 73.3-34.5 100.5-22.7 29.5-56.1 44.5-100.4 45.3H1737V18.8zm111.2 709.3h29c16 .7 27.7-3.1 35.1-11.6 7.1-7.4 10.6-23.6 10.6-48.6V175.1c0-25.8-3.5-42.9-10.6-51.4-7.4-5.9-19.2-8.8-35.1-8.8h-29v613.2zm309.1-709.3h166.8l84.9 805.3h-112l-21-218.2h-78.8l-24 218.2h-100.8l84.9-805.3zm108 482.3l-23-335.4h-7.2l-27.6 335.4h57.8zm185.1 323.1V18.8h150.1c46.4 0 82.5 9.8 108.3 29.3 25.1 21.4 38 57.6 38.7 108.8v114.3c.7 30.2-5.6 56.2-19 77.9-14.7 21.7-45 36.1-91.1 43.1v2.2c25.6 2.2 49 10.1 70.1 23.7 10.2 6.7 18.6 16 25.1 28.2 6.1 12.2 9.6 27.6 10.2 46.4 2.4 53.4 4.3 108.1 5.7 164.1.7 55.6 4.9 111.4 12.5 167.4h-111.4c-8.2-47.5-12.7-99.2-13.3-155.2-1-54.1-1-105 0-152.5 0-25-5.4-42.7-16.2-53-10.8-9.9-30.3-14.2-58.6-12.7v373.4h-111.1zm111.2-471.7h22.9c21.6 0 35.7-5.4 42.4-16 6.3-8.8 9.5-20.8 9.5-35.9V154.7c-1.1-27.2-16.4-40.5-45.8-39.8h-29v237.6zm343.3 341.4c0 19.9 3.5 33.1 10.6 39.8 6 7.7 15.1 11.2 27.3 10.5 12.3.7 21.8-2.8 28.5-10.5 5.6-6.7 8.4-19.9 8.4-39.8v-84.5c-1.1-28-10.6-56.7-28.6-86.2-18-27.6-39.4-56.1-64.1-85.6-23.7-29.5-44.5-59.3-62.5-89.5-20.5-30.2-30.7-61.5-30.7-93.9V138.7c0-27.2 5.1-49.5 15.2-66.8 8.7-18 20.2-32 34.5-42 13.9-9.6 29.6-16.8 47.1-21.5 17.1-3.7 34.2-5.5 51.3-5.5 36.9-.7 70.8 8.3 101.5 27.1 14.3 9.9 25.8 23.9 34.5 42 8.7 17.3 13.1 39.6 13.1 66.8v85.8h-111.1v-75.9c0-19.5-2.8-33-8.4-40.3-6.7-6.3-16.2-9.4-28.5-9.4s-21.4 3.1-27.3 9.4c-7 7.4-10.6 20.8-10.6 40.3v100c0 6.6 3.2 14.8 9 24.8 5.8 10.2 12.9 21.9 21.7 34.8 18 26.5 39 55.6 63 87.2 24.4 30.9 45.5 60.8 63.5 89.5 18.4 30.2 24.7 52.8 28.6 76.8 5.8 35.1 0 142.5 0 142.5 0 25.7-4.4 47.3-13.1 64.6-8.7 18-20.2 31.9-34.5 41.4-13.9 9.9-29.6 17.1-47.1 21.5-17.8 5.5-35.9 8.3-54.4 8.3-17.1 0-34.2-2.8-51.3-8.3-17.4-4.4-33.1-11.6-47.1-21.5-32.4-19.5-49-54.9-49.7-106V593.2h111.2v100.7zm403.9-159.4l13.5-44.5c23.8 6.8 41.4 18.2 53 34 11.5 15.9 17.3 36 17.3 60.4 0 30.2-9.9 55-29.6 74.4-19.8 19.4-46.8 29.1-81.1 29.1-36.3 0-64.4-9.8-84.5-29.3-20.1-19.5-30.1-45.2-30.1-77 0-27.8 7.9-50.4 23.6-67.7 9.3-10.3 22.7-18.1 40.1-23.3l10.4 45.4c-11.3 2.7-20.2 8.3-26.8 16.8s-9.8 18.9-9.8 31.1c0 16.8 5.8 30.5 17.4 41 11.6 10.5 30.4 15.7 56.3 15.7 27.5 0 47.2-5.2 58.9-15.5 11.7-10.3 17.5-23.8 17.5-40.3 0-12.2-3.7-22.7-11.1-31.5-7.4-8.7-19-15-35-18.8zm-27.5-64.1c-22.2 0-40.8-3.5-55.9-10.4-11.1-5.2-21.1-12.2-29.9-21.2-8.8-8.9-15.4-18.7-19.6-29.4-5.7-14.2-8.6-30.5-8.6-49 0-33.5 10-60.3 29.9-80.4 19.9-20.1 47.6-30.1 83.1-30.1 35.2 0 62.7 10 82.6 29.9 19.9 19.9 29.8 46.6 29.8 80 0 33.8-9.9 60.7-29.6 80.6-19.9 20-47.1 30-81.8 30zm-1.5-47.3c24.7 0 43.4-5.9 56.1-17.8 12.7-11.9 19.1-27 19.1-45.3 0-18.3-6.3-33.3-18.9-45-12.6-11.7-31.6-17.6-56.8-17.6-25 0-43.6 5.7-55.9 17.1-12.3 11.4-18.4 26.6-18.4 45.5s6.2 34.2 18.7 45.7c12.3 11.7 31.1 17.4 56.1 17.4zm109.1-197.8H3171v-68.7l148.6-41.2L3171 74.6V5.8h217.9v42.6h-171.5l171.5 45.1v44.2l-171.5 45h171.5v42.6zm-38 552.6c0 36.1-28.1 65.4-62.7 65.4s-62.7-29.3-62.7-65.4c0-36.1 28.1-65.4 62.7-65.4s62.7 29.3 62.7 65.4z"></path>
</svg>
